<svg width="1920" height="960" viewBox="0 0 1920 960" fill="none" xmlns="http://www.w3.org/2000/svg">
<g clip-path="url(#clip0)">
<rect width="1920" height="960" fill="white"/>
<rect width="1920" height="960" fill="#25292F"/>
<path opacity="0.1" d="M212.183 162.987L182.17 193L212.183 223.013L242.196 193L212.183 162.987Z" stroke="#69B1A3" stroke-width="3" stroke-miterlimit="10"/>
<path opacity="0.1" d="M631.246 163.346L601.232 193.359L631.246 223.373L661.259 193.359L631.246 163.346Z" stroke="#69B1A3" stroke-width="3" stroke-miterlimit="10"/>
<path opacity="0.1" d="M1050.25 163.346L1020.23 193.359L1050.25 223.373L1080.26 193.359L1050.25 163.346Z" stroke="#69B1A3" stroke-width="3" stroke-miterlimit="10"/>
<path opacity="0.1" d="M1469.25 163.346L1439.23 193.359L1469.25 223.373L1499.26 193.359L1469.25 163.346Z" stroke="#69B1A3" stroke-width="3" stroke-miterlimit="10"/>
<path opacity="0.1" d="M1819.25 186.303L1789.23 216.317L1819.25 246.33L1849.26 216.317L1819.25 186.303Z" stroke="#69B1A3" stroke-width="3" stroke-miterlimit="10"/>
<path opacity="0.1" d="M356.098 739.545L323.127 712.814L296.396 745.784L329.366 772.516L356.098 739.545Z" stroke="#69B1A3" stroke-width="3" stroke-miterlimit="10"/>
<path opacity="0.1" d="M862.098 739.545L829.127 712.814L802.396 745.784L835.366 772.516L862.098 739.545Z" stroke="#69B1A3" stroke-width="3" stroke-miterlimit="10"/>
<path opacity="0.1" d="M1373.1 739.545L1340.13 712.814L1313.4 745.784L1346.37 772.516L1373.1 739.545Z" stroke="#69B1A3" stroke-width="3" stroke-miterlimit="10"/>
<path opacity="0.1" d="M1886.1 739.545L1853.13 712.814L1826.4 745.784L1859.37 772.516L1886.1 739.545Z" stroke="#69B1A3" stroke-width="3" stroke-miterlimit="10"/>
<path opacity="0.1" d="M233.817 430.346L263.83 460.359L233.817 490.373L203.804 460.359L233.817 430.346Z" stroke="#69B1A3" stroke-width="3" stroke-miterlimit="10"/>
<path opacity="0.1" d="M652.88 430.705L682.893 460.719L652.88 490.732L622.866 460.719L652.88 430.705Z" stroke="#69B1A3" stroke-width="3" stroke-miterlimit="10"/>
<path opacity="0.1" d="M1071.88 430.705L1101.89 460.719L1071.88 490.732L1041.87 460.719L1071.88 430.705Z" stroke="#69B1A3" stroke-width="3" stroke-miterlimit="10"/>
<path opacity="0.1" d="M1490.88 430.705L1520.89 460.719L1490.88 490.732L1460.87 460.719L1490.88 430.705Z" stroke="#69B1A3" stroke-width="3" stroke-miterlimit="10"/>
<path opacity="0.1" d="M1840.88 453.663L1870.89 483.676L1840.88 513.689L1810.87 483.676L1840.88 453.663Z" stroke="#69B1A3" stroke-width="3" stroke-miterlimit="10"/>
<path opacity="0.1" d="M92.4348 788.851L65.7035 821.821L32.7332 795.09L59.4645 762.12L92.4348 788.851Z" stroke="#69B1A3" stroke-width="3" stroke-miterlimit="10"/>
<path opacity="0.1" d="M598.435 788.851L571.703 821.821L538.733 795.09L565.464 762.12L598.435 788.851Z" stroke="#69B1A3" stroke-width="3" stroke-miterlimit="10"/>
<path opacity="0.1" d="M1109.43 788.851L1082.7 821.821L1049.73 795.09L1076.46 762.12L1109.43 788.851Z" stroke="#69B1A3" stroke-width="3" stroke-miterlimit="10"/>
<path opacity="0.1" d="M1622.43 788.851L1595.7 821.821L1562.73 795.09L1589.46 762.12L1622.43 788.851Z" stroke="#69B1A3" stroke-width="3" stroke-miterlimit="10"/>
<path opacity="0.1" d="M325.933 101.425L297.048 98.6831L294.307 127.568L323.192 130.31L325.933 101.425Z" stroke="#69B1A3" stroke-width="3" stroke-miterlimit="10"/>
<path opacity="0.1" d="M744.996 101.784L716.111 99.0425L713.369 127.928L742.254 130.669L744.996 101.784Z" stroke="#69B1A3" stroke-width="3" stroke-miterlimit="10"/>
<path opacity="0.1" d="M1164 101.784L1135.11 99.0425L1132.37 127.928L1161.25 130.669L1164 101.784Z" stroke="#69B1A3" stroke-width="3" stroke-miterlimit="10"/>
<path opacity="0.1" d="M1583 101.784L1554.11 99.0425L1551.37 127.928L1580.25 130.669L1583 101.784Z" stroke="#69B1A3" stroke-width="3" stroke-miterlimit="10"/>
<path opacity="0.1" d="M1933 124.741L1904.11 122L1901.37 150.885L1930.25 153.627L1933 124.741Z" stroke="#69B1A3" stroke-width="3" stroke-miterlimit="10"/>
<path opacity="0.1" d="M429.149 846.281L428.873 817.267L399.86 817.543L400.135 846.556L429.149 846.281Z" stroke="#69B1A3" stroke-width="3" stroke-miterlimit="10"/>
<path opacity="0.1" d="M935.149 846.281L934.873 817.267L905.86 817.543L906.135 846.556L935.149 846.281Z" stroke="#69B1A3" stroke-width="3" stroke-miterlimit="10"/>
<path opacity="0.1" d="M1446.15 846.281L1445.87 817.267L1416.86 817.543L1417.14 846.556L1446.15 846.281Z" stroke="#69B1A3" stroke-width="3" stroke-miterlimit="10"/>
<path opacity="0.1" d="M120.067 368.784L148.952 366.042L151.693 394.928L122.808 397.669L120.067 368.784Z" stroke="#69B1A3" stroke-width="3" stroke-miterlimit="10"/>
<path opacity="0.1" d="M539.13 369.143L568.015 366.402L570.756 395.287L541.871 398.028L539.13 369.143Z" stroke="#69B1A3" stroke-width="3" stroke-miterlimit="10"/>
<path opacity="0.1" d="M958.13 369.143L987.015 366.402L989.756 395.287L960.871 398.028L958.13 369.143Z" stroke="#69B1A3" stroke-width="3" stroke-miterlimit="10"/>
<path opacity="0.1" d="M1377.13 369.143L1406.01 366.402L1408.76 395.287L1379.87 398.028L1377.13 369.143Z" stroke="#69B1A3" stroke-width="3" stroke-miterlimit="10"/>
<path opacity="0.1" d="M141.84 669.318L147.569 697.762L119.126 703.491L113.397 675.047L141.84 669.318Z" stroke="#69B1A3" stroke-width="3" stroke-miterlimit="10"/>
<path opacity="0.1" d="M647.84 669.318L653.569 697.762L625.126 703.491L619.397 675.047L647.84 669.318Z" stroke="#69B1A3" stroke-width="3" stroke-miterlimit="10"/>
<path opacity="0.1" d="M1158.84 669.318L1164.57 697.762L1136.13 703.491L1130.4 675.047L1158.84 669.318Z" stroke="#69B1A3" stroke-width="3" stroke-miterlimit="10"/>
<path opacity="0.1" d="M1671.84 669.318L1677.57 697.762L1649.13 703.491L1643.4 675.047L1671.84 669.318Z" stroke="#69B1A3" stroke-width="3" stroke-miterlimit="10"/>
<path opacity="0.1" d="M148.145 66.8502L129.831 44.3459L107.327 62.6603L125.641 85.1646L148.145 66.8502Z" stroke="#69B1A3" stroke-width="3" stroke-miterlimit="10"/>
<path opacity="0.1" d="M567.208 67.2096L548.894 44.7053L526.389 63.0196L544.704 85.524L567.208 67.2096Z" stroke="#69B1A3" stroke-width="3" stroke-miterlimit="10"/>
<path opacity="0.1" d="M986.208 67.2096L967.894 44.7053L945.389 63.0196L963.704 85.524L986.208 67.2096Z" stroke="#69B1A3" stroke-width="3" stroke-miterlimit="10"/>
<path opacity="0.1" d="M1405.21 67.2096L1386.89 44.7053L1364.39 63.0196L1382.7 85.524L1405.21 67.2096Z" stroke="#69B1A3" stroke-width="3" stroke-miterlimit="10"/>
<path opacity="0.1" d="M445.057 665.862L465.536 645.308L444.982 624.829L424.503 645.383L445.057 665.862Z" stroke="#69B1A3" stroke-width="3" stroke-miterlimit="10"/>
<path opacity="0.1" d="M951.057 665.862L971.536 645.308L950.982 624.829L930.503 645.383L951.057 665.862Z" stroke="#69B1A3" stroke-width="3" stroke-miterlimit="10"/>
<path opacity="0.1" d="M1462.06 665.862L1482.54 645.308L1461.98 624.829L1441.5 645.383L1462.06 665.862Z" stroke="#69B1A3" stroke-width="3" stroke-miterlimit="10"/>
<path opacity="0.1" d="M297.855 334.21L316.169 311.705L338.673 330.02L320.359 352.524L297.855 334.21Z" stroke="#69B1A3" stroke-width="3" stroke-miterlimit="10"/>
<path opacity="0.1" d="M716.917 334.569L735.232 312.065L757.736 330.379L739.422 352.883L716.917 334.569Z" stroke="#69B1A3" stroke-width="3" stroke-miterlimit="10"/>
<path opacity="0.1" d="M1135.92 334.569L1154.23 312.065L1176.74 330.379L1158.42 352.883L1135.92 334.569Z" stroke="#69B1A3" stroke-width="3" stroke-miterlimit="10"/>
<path opacity="0.1" d="M1554.92 334.569L1573.23 312.065L1595.74 330.379L1577.42 352.883L1554.92 334.569Z" stroke="#69B1A3" stroke-width="3" stroke-miterlimit="10"/>
<path opacity="0.1" d="M1904.92 357.526L1923.23 335.022L1945.74 353.337L1927.42 375.841L1904.92 357.526Z" stroke="#69B1A3" stroke-width="3" stroke-miterlimit="10"/>
<path opacity="0.1" d="M194.706 842.549L218.992 858.426L203.116 882.712L178.83 866.835L194.706 842.549Z" stroke="#69B1A3" stroke-width="3" stroke-miterlimit="10"/>
<path opacity="0.1" d="M700.706 842.549L724.992 858.426L709.116 882.712L684.83 866.835L700.706 842.549Z" stroke="#69B1A3" stroke-width="3" stroke-miterlimit="10"/>
<path opacity="0.1" d="M1211.71 842.549L1235.99 858.426L1220.12 882.712L1195.83 866.835L1211.71 842.549Z" stroke="#69B1A3" stroke-width="3" stroke-miterlimit="10"/>
<path opacity="0.1" d="M1724.71 842.549L1748.99 858.426L1733.12 882.712L1708.83 866.835L1724.71 842.549Z" stroke="#69B1A3" stroke-width="3" stroke-miterlimit="10"/>
<path opacity="0.1" d="M370.229 20.6406L359.435 30.2101L369.005 41.0042L379.799 31.4348L370.229 20.6406Z" stroke="#69B1A3" stroke-width="2" stroke-miterlimit="10"/>
<path opacity="0.1" d="M789.292 21L778.498 30.5695L788.067 41.3636L798.861 31.7941L789.292 21Z" stroke="#69B1A3" stroke-width="2" stroke-miterlimit="10"/>
<path opacity="0.1" d="M1208.29 21L1197.5 30.5695L1207.07 41.3636L1217.86 31.7941L1208.29 21Z" stroke="#69B1A3" stroke-width="2" stroke-miterlimit="10"/>
<path opacity="0.1" d="M1627.29 21L1616.5 30.5695L1626.07 41.3636L1636.86 31.7941L1627.29 21Z" stroke="#69B1A3" stroke-width="2" stroke-miterlimit="10"/>
<path opacity="0.1" d="M514.099 881.94L503.46 872.199L493.719 882.839L504.358 892.58L514.099 881.94Z" stroke="#69B1A3" stroke-width="2" stroke-miterlimit="10"/>
<path opacity="0.1" d="M1020.1 881.94L1009.46 872.199L999.719 882.839L1010.36 892.58L1020.1 881.94Z" stroke="#69B1A3" stroke-width="2" stroke-miterlimit="10"/>
<path opacity="0.1" d="M1531.1 881.94L1520.46 872.199L1510.72 882.839L1521.36 892.58L1531.1 881.94Z" stroke="#69B1A3" stroke-width="2" stroke-miterlimit="10"/>
<path opacity="0.1" d="M75.7708 288L86.5649 297.569L76.9955 308.364L66.2013 298.794L75.7708 288Z" stroke="#69B1A3" stroke-width="2" stroke-miterlimit="10"/>
<path opacity="0.1" d="M494.833 288.359L505.628 297.929L496.058 308.723L485.264 299.154L494.833 288.359Z" stroke="#69B1A3" stroke-width="2" stroke-miterlimit="10"/>
<path opacity="0.1" d="M913.833 288.359L924.628 297.929L915.058 308.723L904.264 299.154L913.833 288.359Z" stroke="#69B1A3" stroke-width="2" stroke-miterlimit="10"/>
<path opacity="0.1" d="M1332.83 288.359L1343.63 297.929L1334.06 308.723L1323.26 299.154L1332.83 288.359Z" stroke="#69B1A3" stroke-width="2" stroke-miterlimit="10"/>
<path opacity="0.1" d="M217.583 616.866L209.187 628.596L197.457 620.2L205.852 608.47L217.583 616.866Z" stroke="#69B1A3" stroke-width="2" stroke-miterlimit="10"/>
<path opacity="0.1" d="M723.583 616.866L715.187 628.596L703.457 620.2L711.852 608.47L723.583 616.866Z" stroke="#69B1A3" stroke-width="2" stroke-miterlimit="10"/>
<path opacity="0.1" d="M1234.58 616.866L1226.19 628.596L1214.46 620.2L1222.85 608.47L1234.58 616.866Z" stroke="#69B1A3" stroke-width="2" stroke-miterlimit="10"/>
<path opacity="0.1" d="M1747.58 616.866L1739.19 628.596L1727.46 620.2L1735.85 608.47L1747.58 616.866Z" stroke="#69B1A3" stroke-width="2" stroke-miterlimit="10"/>
<path opacity="0.1" d="M322.602 207.273L309.092 202.217L304.036 215.727L317.546 220.783L322.602 207.273Z" stroke="#69B1A3" stroke-width="2" stroke-miterlimit="10"/>
<path opacity="0.1" d="M741.665 207.632L728.154 202.576L723.098 216.087L736.609 221.142L741.665 207.632Z" stroke="#69B1A3" stroke-width="2" stroke-miterlimit="10"/>
<path opacity="0.1" d="M1160.66 207.632L1147.15 202.576L1142.1 216.087L1155.61 221.142L1160.66 207.632Z" stroke="#69B1A3" stroke-width="2" stroke-miterlimit="10"/>
<path opacity="0.1" d="M1579.66 207.632L1566.15 202.576L1561.1 216.087L1574.61 221.142L1579.66 207.632Z" stroke="#69B1A3" stroke-width="2" stroke-miterlimit="10"/>
<path opacity="0.1" d="M323.528 853.969L327.152 840.006L313.189 836.382L309.565 850.345L323.528 853.969Z" stroke="#69B1A3" stroke-width="2" stroke-miterlimit="10"/>
<path opacity="0.1" d="M829.528 853.969L833.152 840.006L819.189 836.382L815.565 850.345L829.528 853.969Z" stroke="#69B1A3" stroke-width="2" stroke-miterlimit="10"/>
<path opacity="0.1" d="M1340.53 853.969L1344.15 840.006L1330.19 836.382L1326.57 850.345L1340.53 853.969Z" stroke="#69B1A3" stroke-width="2" stroke-miterlimit="10"/>
<path opacity="0.1" d="M1853.53 853.969L1857.15 840.006L1843.19 836.382L1839.57 850.345L1853.53 853.969Z" stroke="#69B1A3" stroke-width="2" stroke-miterlimit="10"/>
<path opacity="0.1" d="M123.398 474.632L136.908 469.576L141.964 483.087L128.454 488.142L123.398 474.632Z" stroke="#69B1A3" stroke-width="2" stroke-miterlimit="10"/>
<path opacity="0.1" d="M542.461 474.991L555.971 469.936L561.027 483.446L547.517 488.502L542.461 474.991Z" stroke="#69B1A3" stroke-width="2" stroke-miterlimit="10"/>
<path opacity="0.1" d="M961.461 474.991L974.971 469.936L980.027 483.446L966.517 488.502L961.461 474.991Z" stroke="#69B1A3" stroke-width="2" stroke-miterlimit="10"/>
<path opacity="0.1" d="M1380.46 474.991L1393.97 469.936L1399.03 483.446L1385.52 488.502L1380.46 474.991Z" stroke="#69B1A3" stroke-width="2" stroke-miterlimit="10"/>
<path opacity="0.1" d="M36.9117 683.633L43.3445 696.545L30.4328 702.977L24 690.066L36.9117 683.633Z" stroke="#69B1A3" stroke-width="2" stroke-miterlimit="10"/>
<path opacity="0.1" d="M542.912 683.633L549.344 696.545L536.433 702.977L530 690.066L542.912 683.633Z" stroke="#69B1A3" stroke-width="2" stroke-miterlimit="10"/>
<path opacity="0.1" d="M1053.91 683.633L1060.34 696.545L1047.43 702.977L1041 690.066L1053.91 683.633Z" stroke="#69B1A3" stroke-width="2" stroke-miterlimit="10"/>
<path opacity="0.1" d="M1566.91 683.633L1573.34 696.545L1560.43 702.977L1554 690.066L1566.91 683.633Z" stroke="#69B1A3" stroke-width="2" stroke-miterlimit="10"/>
<path opacity="0.1" d="M48.3487 150.299L23.9373 208.021L81.6598 232.433L106.071 174.71L48.3487 150.299Z" stroke="#69B1A3" stroke-width="3" stroke-miterlimit="10"/>
<path opacity="0.1" d="M467.411 150.658L443 208.381L500.723 232.792L525.134 175.07L467.411 150.658Z" stroke="#69B1A3" stroke-width="3" stroke-miterlimit="10"/>
<path opacity="0.1" d="M886.411 150.658L862 208.381L919.723 232.792L944.134 175.07L886.411 150.658Z" stroke="#69B1A3" stroke-width="3" stroke-miterlimit="10"/>
<path opacity="0.1" d="M1305.41 150.658L1281 208.381L1338.72 232.792L1363.13 175.07L1305.41 150.658Z" stroke="#69B1A3" stroke-width="3" stroke-miterlimit="10"/>
<path opacity="0.1" d="M1655.41 173.616L1631 231.338L1688.72 255.75L1713.13 198.027L1655.41 173.616Z" stroke="#69B1A3" stroke-width="3" stroke-miterlimit="10"/>
<path opacity="0.1" d="M351.688 575.28L291.741 557L273.461 616.947L333.408 635.227L351.688 575.28Z" stroke="#69B1A3" stroke-width="3" stroke-miterlimit="10"/>
<path opacity="0.1" d="M857.688 575.28L797.741 557L779.461 616.947L839.408 635.227L857.688 575.28Z" stroke="#69B1A3" stroke-width="3" stroke-miterlimit="10"/>
<path opacity="0.1" d="M1368.69 575.28L1308.74 557L1290.46 616.947L1350.41 635.227L1368.69 575.28Z" stroke="#69B1A3" stroke-width="3" stroke-miterlimit="10"/>
<path opacity="0.1" d="M1881.69 575.28L1821.74 557L1803.46 616.947L1863.41 635.227L1881.69 575.28Z" stroke="#69B1A3" stroke-width="3" stroke-miterlimit="10"/>
<path opacity="0.1" d="M397.651 417.658L422.063 475.381L364.34 499.792L339.929 442.07L397.651 417.658Z" stroke="#69B1A3" stroke-width="3" stroke-miterlimit="10"/>
<path opacity="0.1" d="M816.714 418.017L841.125 475.74L783.403 500.151L758.991 442.429L816.714 418.017Z" stroke="#69B1A3" stroke-width="3" stroke-miterlimit="10"/>
<path opacity="0.1" d="M1235.71 418.017L1260.13 475.74L1202.4 500.151L1177.99 442.429L1235.71 418.017Z" stroke="#69B1A3" stroke-width="3" stroke-miterlimit="10"/>
<path opacity="0.1" d="M1654.71 418.017L1679.13 475.74L1621.4 500.151L1596.99 442.429L1654.71 418.017Z" stroke="#69B1A3" stroke-width="3" stroke-miterlimit="10"/>
<path opacity="0.1" d="M122.082 950.479L67.2098 980.758L36.931 925.885L91.8036 895.606L122.082 950.479Z" stroke="#69B1A3" stroke-width="3" stroke-miterlimit="10"/>
<path opacity="0.1" d="M628.082 950.479L573.21 980.758L542.931 925.885L597.804 895.606L628.082 950.479Z" stroke="#69B1A3" stroke-width="3" stroke-miterlimit="10"/>
<path opacity="0.1" d="M1139.08 950.479L1084.21 980.758L1053.93 925.885L1108.8 895.606L1139.08 950.479Z" stroke="#69B1A3" stroke-width="3" stroke-miterlimit="10"/>
<path opacity="0.1" d="M1652.08 950.479L1597.21 980.758L1566.93 925.885L1621.8 895.606L1652.08 950.479Z" stroke="#69B1A3" stroke-width="3" stroke-miterlimit="10"/>
<path opacity="0.1" d="M249.192 20.644L238.398 30.2134L247.967 41.0076L258.762 31.4381L249.192 20.644Z" stroke="#69B1A3" stroke-width="2" stroke-miterlimit="10"/>
<path opacity="0.1" d="M668.255 21.0033L657.461 30.5728L667.03 41.367L677.824 31.7975L668.255 21.0033Z" stroke="#69B1A3" stroke-width="2" stroke-miterlimit="10"/>
<path opacity="0.1" d="M1087.25 21.0033L1076.46 30.5728L1086.03 41.367L1096.82 31.7975L1087.25 21.0033Z" stroke="#69B1A3" stroke-width="2" stroke-miterlimit="10"/>
<path opacity="0.1" d="M1506.25 21.0033L1495.46 30.5728L1505.03 41.367L1515.82 31.7975L1506.25 21.0033Z" stroke="#69B1A3" stroke-width="2" stroke-miterlimit="10"/>
<path opacity="0.1" d="M501.516 761.559L490.876 751.818L481.135 762.458L491.775 772.199L501.516 761.559Z" stroke="#69B1A3" stroke-width="2" stroke-miterlimit="10"/>
<path opacity="0.1" d="M1007.52 761.559L996.876 751.818L987.135 762.458L997.775 772.199L1007.52 761.559Z" stroke="#69B1A3" stroke-width="2" stroke-miterlimit="10"/>
<path opacity="0.1" d="M1518.52 761.559L1507.88 751.818L1498.14 762.458L1508.77 772.199L1518.52 761.559Z" stroke="#69B1A3" stroke-width="2" stroke-miterlimit="10"/>
<path opacity="0.1" d="M196.808 288.003L207.602 297.573L198.033 308.367L187.238 298.797L196.808 288.003Z" stroke="#69B1A3" stroke-width="2" stroke-miterlimit="10"/>
<path opacity="0.1" d="M615.871 288.363L626.665 297.932L617.095 308.726L606.301 299.157L615.871 288.363Z" stroke="#69B1A3" stroke-width="2" stroke-miterlimit="10"/>
<path opacity="0.1" d="M1034.87 288.363L1045.66 297.932L1036.1 308.726L1025.3 299.157L1034.87 288.363Z" stroke="#69B1A3" stroke-width="2" stroke-miterlimit="10"/>
<path opacity="0.1" d="M1453.87 288.363L1464.66 297.932L1455.1 308.726L1444.3 299.157L1453.87 288.363Z" stroke="#69B1A3" stroke-width="2" stroke-miterlimit="10"/>
<path opacity="0.1" d="M1803.87 311.32L1814.66 320.89L1805.1 331.684L1794.3 322.114L1803.87 311.32Z" stroke="#69B1A3" stroke-width="2" stroke-miterlimit="10"/>
<path opacity="0.1" d="M230.16 737.247L221.764 748.978L210.034 740.582L218.429 728.852L230.16 737.247Z" stroke="#69B1A3" stroke-width="2" stroke-miterlimit="10"/>
<path opacity="0.1" d="M736.16 737.247L727.764 748.978L716.034 740.582L724.429 728.852L736.16 737.247Z" stroke="#69B1A3" stroke-width="2" stroke-miterlimit="10"/>
<path opacity="0.1" d="M1247.16 737.247L1238.76 748.978L1227.03 740.582L1235.43 728.852L1247.16 737.247Z" stroke="#69B1A3" stroke-width="2" stroke-miterlimit="10"/>
<path opacity="0.1" d="M1760.16 737.247L1751.76 748.978L1740.03 740.582L1748.43 728.852L1760.16 737.247Z" stroke="#69B1A3" stroke-width="2" stroke-miterlimit="10"/>
<path opacity="0.1" d="M407.597 106.198L406.795 120.601L421.198 121.403L422 107L407.597 106.198Z" stroke="#69B1A3" stroke-width="2" stroke-miterlimit="10"/>
<path opacity="0.1" d="M826.659 106.558L825.858 120.961L840.261 121.762L841.063 107.359L826.659 106.558Z" stroke="#69B1A3" stroke-width="2" stroke-miterlimit="10"/>
<path opacity="0.1" d="M1245.66 106.558L1244.86 120.961L1259.26 121.762L1260.06 107.359L1245.66 106.558Z" stroke="#69B1A3" stroke-width="2" stroke-miterlimit="10"/>
<path opacity="0.1" d="M1664.66 106.558L1663.86 120.961L1678.26 121.762L1679.06 107.359L1664.66 106.558Z" stroke="#69B1A3" stroke-width="2" stroke-miterlimit="10"/>
<path opacity="0.1" d="M432.889 927.998L418.481 928.698L419.18 943.107L433.589 942.407L432.889 927.998Z" stroke="#69B1A3" stroke-width="2" stroke-miterlimit="10"/>
<path opacity="0.1" d="M938.889 927.998L924.481 928.698L925.18 943.107L939.589 942.407L938.889 927.998Z" stroke="#69B1A3" stroke-width="2" stroke-miterlimit="10"/>
<path opacity="0.1" d="M1449.89 927.998L1435.48 928.698L1436.18 943.107L1450.59 942.407L1449.89 927.998Z" stroke="#69B1A3" stroke-width="2" stroke-miterlimit="10"/>
<path opacity="0.1" d="M38.4033 373.558L39.2048 387.961L24.8016 388.762L24 374.359L38.4033 373.558Z" stroke="#69B1A3" stroke-width="2" stroke-miterlimit="10"/>
<path opacity="0.1" d="M457.466 373.917L458.268 388.32L443.864 389.122L443.063 374.718L457.466 373.917Z" stroke="#69B1A3" stroke-width="2" stroke-miterlimit="10"/>
<path opacity="0.1" d="M876.466 373.917L877.268 388.32L862.864 389.122L862.063 374.718L876.466 373.917Z" stroke="#69B1A3" stroke-width="2" stroke-miterlimit="10"/>
<path opacity="0.1" d="M1295.47 373.917L1296.27 388.32L1281.86 389.122L1281.06 374.718L1295.47 373.917Z" stroke="#69B1A3" stroke-width="2" stroke-miterlimit="10"/>
<path opacity="0.1" d="M128.605 588.593L114.363 590.887L112.068 576.645L126.31 574.351L128.605 588.593Z" stroke="#69B1A3" stroke-width="2" stroke-miterlimit="10"/>
<path opacity="0.1" d="M634.605 588.593L620.363 590.887L618.068 576.645L632.31 574.351L634.605 588.593Z" stroke="#69B1A3" stroke-width="2" stroke-miterlimit="10"/>
<path opacity="0.1" d="M1145.6 588.593L1131.36 590.887L1129.07 576.645L1143.31 574.351L1145.6 588.593Z" stroke="#69B1A3" stroke-width="2" stroke-miterlimit="10"/>
<path opacity="0.1" d="M1658.6 588.593L1644.36 590.887L1642.07 576.645L1656.31 574.351L1658.6 588.593Z" stroke="#69B1A3" stroke-width="2" stroke-miterlimit="10"/>
</g>
<defs>
<clipPath id="clip0">
<rect width="1920" height="960" fill="white"/>
</clipPath>
</defs>
</svg>
